<?xml version="1.0" encoding="utf-8"?>
<!-- Generator: Adobe Illustrator 19.2.0, SVG Export Plug-In . SVG Version: 6.00 Build 0)  -->
<svg version="1.1" id="circlechat" xmlns="http://www.w3.org/2000/svg" xmlns:xlink="http://www.w3.org/1999/xlink" x="0px" y="0px"
	 viewBox="0 0 200 40" enable-background="new 0 0 200 40" xml:space="preserve">
<g>
	<circle fill="#5ECB66" cx="20" cy="20" r="12"/>
	<circle fill="#5ECB66" cx="100" cy="20" r="12"/>
	<circle fill="#5ECB66" cx="180" cy="20" r="12"/>
	<path fill="#314E55" d="M20,0C8.9727,0,0,8.9727,0,20s8.9727,20,20,20s20-8.9727,20-20S31.0273,0,20,0z M20,32
		c-6.6172,0-12-5.3828-12-12S13.3828,8,20,8s12,5.3828,12,12S26.6172,32,20,32z"/>
	<path fill="#314E55" d="M100,0C88.9727,0,80,8.9727,80,20s8.9727,20,20,20s20-8.9727,20-20S111.0273,0,100,0z M100,32
		c-6.6172,0-12-5.3828-12-12s5.3828-12,12-12s12,5.3828,12,12S106.6172,32,100,32z"/>
	<path fill="#314E55" d="M180,0c-11.0273,0-20,8.9727-20,20s8.9727,20,20,20s20-8.9727,20-20S191.0273,0,180,0z M180,32
		c-6.6172,0-12-5.3828-12-12s5.3828-12,12-12s12,5.3828,12,12S186.6172,32,180,32z"/>
</g>
</svg>
