<svg id="Layer_1" data-name="Layer 1" xmlns="http://www.w3.org/2000/svg" viewBox="0 0 56.447 30.856"><title>eye</title><path d="M55.519,28.5a32.514,32.514,0,0,0-54.039,0,32.514,32.514,0,0,0,54.039,0Zm-27,10.572a11,11,0,1,0-11-11,11,11,0,0,0,11,11Zm0,0" transform="translate(-0.277 -13.072)" style="fill:#0000ff;fill-rule:evenodd;opacity:0.25"/><path d="M55.519,28.5a32.514,32.514,0,0,0-54.039,0,32.514,32.514,0,0,0,54.039,0Zm-27,10.572a11,11,0,1,0-11-11,11,11,0,0,0,11,11Zm0,0" transform="translate(-0.277 -13.072)" style="fill:none;stroke:#000000;stroke-linecap:round;stroke-miterlimit:10;stroke-width:2px"/><path d="M28.519,31.072a3,3,0,1,0-3-3,3,3,0,0,0,3,3Zm0,0" transform="translate(-0.277 -13.072)" style="fill:none;fill-rule:evenodd"/><circle cx="28.223" cy="15.428" r="2.818" style="fill:#000000;opacity:0.25"/><path d="M28.519,32.072a4,4,0,1,1,4-4A4,4,0,0,1,28.519,32.072Zm0-6a2,2,0,1,0,2,2A2,2,0,0,0,28.519,26.072Zm-7,3a1,1,0,0,1-1-1,8.009,8.009,0,0,1,8-8,1,1,0,0,1,0,2,6.006,6.006,0,0,0-6,6A1,1,0,0,1,21.519,29.072Z" transform="translate(-0.277 -13.072)" style="fill:#000000"/></svg>
