<?xml version="1.0" encoding="utf-8"?>
<!-- Generator: Adobe Illustrator 19.2.0, SVG Export Plug-In . SVG Version: 6.00 Build 0)  -->
<svg version="1.1" id="moviecamera" xmlns="http://www.w3.org/2000/svg" xmlns:xlink="http://www.w3.org/1999/xlink" x="0px"
	 y="0px" viewBox="0 0 184 212" enable-background="new 0 0 184 212" xml:space="preserve">
<g>
	<path fill="#E4AD40" d="M32,56c13.2344,0,24-10.7656,24-24S45.2344,8,32,8S8,18.7656,8,32S18.7656,56,32,56z"/>
	<rect x="36" y="116" fill="#73C9C9" width="56" height="28"/>
	<path fill="#E4AD40" d="M88,56c13.2344,0,24-10.7656,24-24S101.2344,8,88,8S64,18.7656,64,32S74.7656,56,88,56z"/>
	<polygon fill="#73C9C9" points="12,80 12,108 32,108 96,108 120,108 120,80 	"/>
	<polygon fill="#73C9C9" points="128,76 128,112 128,124.7656 176,135.0527 176,52.9473 128,63.2344 	"/>
	<path fill="#314E55" d="M182.5156,44.8887c-0.9414-0.7598-2.1777-1.0488-3.3535-0.8008l-56,12C121.3184,56.4844,120,58.1133,120,60
		v12H8c-2.209,0-4,1.791-4,4v36c0,2.209,1.791,4,4,4h20v32c0,2.209,1.791,4,4,4h22.3438l-51.209,51.209
		c-1.5625,1.5625-1.5625,4.0938,0,5.6562c0.7812,0.7812,1.8047,1.1719,2.8281,1.1719s2.0469-0.3906,2.8281-1.1719L60,157.6562V208
		c0,2.209,1.791,4,4,4s4-1.791,4-4v-50.3438l51.209,51.209c0.7812,0.7812,1.8047,1.1719,2.8281,1.1719s2.0469-0.3906,2.8281-1.1719
		c1.5625-1.5625,1.5625-4.0938,0-5.6562L73.6562,152H96c2.209,0,4-1.791,4-4v-32h20v12c0,1.8867,1.3184,3.5156,3.1621,3.9121l56,12
		C179.4395,143.9707,179.7207,144,180,144c0.9062,0,1.7969-0.3086,2.5156-0.8887C183.4551,142.3516,184,141.207,184,140V48
		C184,46.793,183.4551,45.6484,182.5156,44.8887z M92,144H36v-28h56V144z M96,108H32H12V80h108v28H96z M176,135.0527l-48-10.2871
		V112V76V63.2344l48-10.2871V135.0527z"/>
	<path fill="#314E55" d="M32,64c12.0398,0,22.5391-6.6904,28-16.5425C65.4609,57.3096,75.9602,64,88,64c17.6445,0,32-14.3555,32-32
		S105.6445,0,88,0C75.9602,0,65.4609,6.6904,60,16.5425C54.5391,6.6904,44.0398,0,32,0C14.3555,0,0,14.3555,0,32S14.3555,64,32,64z
		 M88,8c13.2344,0,24,10.7656,24,24s-10.7656,24-24,24S64,45.2344,64,32S74.7656,8,88,8z M32,8c13.2344,0,24,10.7656,24,24
		S45.2344,56,32,56S8,45.2344,8,32S18.7656,8,32,8z"/>
</g>
</svg>
