<?xml version="1.0" encoding="utf-8"?>
<!-- Generator: Adobe Illustrator 19.2.0, SVG Export Plug-In . SVG Version: 6.00 Build 0)  -->
<svg version="1.1" id="witch" xmlns="http://www.w3.org/2000/svg" xmlns:xlink="http://www.w3.org/1999/xlink" x="0px" y="0px"
	 viewBox="0 0 201.4569 194.7049" enable-background="new 0 0 201.4569 194.7049" xml:space="preserve">
<path fill="#314E55" d="M197.5352,186.076c-0.2515-0.0508-15.9353-3.1316-41.0591-5.4734L129,76.5799l41.1641-70.5664
	c0.9336-1.6055,0.6406-3.6445-0.7071-4.9219c-1.3515-1.2773-3.4101-1.4492-4.953-0.4336l-100,66
	c-0.8984,0.5938-1.5195,1.5234-1.7227,2.582l-11.2795,58.4485c-0.3518,0.4871-0.636,1.0266-0.74,1.6531l-2.6663,15.9973
	l-6.8748,35.6235c-22.9216,2.2854-37.0601,5.0654-37.2988,5.1135L0,186.8612l1.5703,7.8438l3.9219-0.7852
	c0.3945-0.0781,40.3086-7.9219,95.2148-7.9219s94.8633,7.8438,95.2617,7.9219l3.9219,0.7812l1.5663-7.8438L197.5352,186.076z"/>
<polygon fill="#73C9C9" points="112.707,133.9979 135.582,133.9979 139.582,149.9979 112.707,149.9979 "/>
<path fill="#81A4E3" d="M70.3164,72.408l84.3164-55.6484L121.25,73.9822c-0.5352,0.918-0.6797,2.0117-0.4102,3.0391l12.9373,48.9766
	H108.707h-16H59.9734L70.3164,72.408z"/>
<rect x="96.707" y="133.9979" fill="#D8D8D8" width="8" height="16"/>
<polygon fill="#73C9C9" points="55.9856,146.6597 58.4292,133.9979 88.707,133.9979 88.707,149.9979 55.4297,149.9979 "/>
<path fill="#81A4E3" d="M49.5134,180.1934l4.2837-22.1956H92.707h16H142.23l5.7783,21.8752
	c-13.7588-1.0852-29.7839-1.8752-47.3013-1.8752C81.5066,177.9979,64.1013,178.9466,49.5134,180.1934z"/>
</svg>
