<?xml version="1.0" encoding="utf-8"?>
<!-- Generator: Adobe Illustrator 19.2.0, SVG Export Plug-In . SVG Version: 6.00 Build 0)  -->
<svg version="1.1" id="moonstars" xmlns="http://www.w3.org/2000/svg" xmlns:xlink="http://www.w3.org/1999/xlink" x="0px" y="0px"
	 viewBox="0 0 193.1133 170.2969" enable-background="new 0 0 193.1133 170.2969" xml:space="preserve">
<g>
	<path fill="#F28544" d="M111.2871,31.2051c5.8535,26.7988-2.7402,55.0547-23.1172,74.0566
		c-20.3789,19.0039-49.1719,25.5938-75.4883,17.8965c3.0117,6.0898,6.9043,11.7051,11.625,16.7676
		c12.8145,13.7422,30.2129,21.6719,48.9922,22.3281c18.7559,0.6309,36.6895-6.043,50.4316-18.8574
		c13.7441-12.8145,21.6738-30.2148,22.3281-48.9941c0.6562-18.7773-6.0391-36.6875-18.8555-50.4297
		C122.4844,38.9102,117.1523,34.6367,111.2871,31.2051z"/>
	<path fill="#314E55" d="M106.5586,19.8906c-1.4492-0.6191-3.1367-0.3281-4.2988,0.752c-1.1562,1.0801-1.5684,2.7402-1.0508,4.2363
		c9.1152,26.3008,1.8555,55.5566-18.4961,74.5312c-20.3496,18.9785-50.0469,24.1816-75.6406,13.252
		c-1.4551-0.6172-3.1406-0.3262-4.2988,0.7539c-1.1562,1.0801-1.5684,2.7402-1.0508,4.2363
		c3.584,10.3379,9.2129,19.668,16.7324,27.7305c14.2715,15.3047,33.6504,24.1348,54.5645,24.8652
		c0.9375,0.0332,1.8691,0.0488,2.8027,0.0488c19.8867,0,38.7461-7.416,53.3652-21.0488
		c15.3047-14.2734,24.1367-33.6504,24.8672-54.5664c0.7305-20.9141-6.7285-40.8613-21-56.166
		C125.5371,30.4551,116.623,24.1875,106.5586,19.8906z M123.7305,143.3965c-13.7422,12.8145-31.6758,19.4883-50.4316,18.8574
		c-18.7793-0.6562-36.1777-8.5859-48.9922-22.3281c-4.7207-5.0625-8.6132-10.6777-11.625-16.7676
		c26.3164,7.6973,55.1094,1.1074,75.4883-17.8965c20.377-19.002,28.9707-47.2578,23.1172-74.0566
		c5.8652,3.4316,11.1973,7.7051,15.916,12.7676c12.8164,13.7422,19.5117,31.6523,18.8555,50.4297
		C145.4043,113.1816,137.4746,130.582,123.7305,143.3965z"/>
	<path fill="#314E55" d="M53.1719,23.791c0.7812,0.7812,1.8047,1.1719,2.8281,1.1719s2.0469-0.3906,2.8281-1.1719l5.7288-5.7285
		l5.7283,5.7285c0.7812,0.7812,1.8047,1.1719,2.8281,1.1719s2.0469-0.3906,2.8281-1.1719c1.5625-1.5625,1.5625-4.0938,0-5.6562
		l-5.7278-5.7275l5.5774-5.5771c1.5625-1.5625,1.5625-4.0938,0-5.6562s-4.0938-1.5625-5.6562,0L64.5574,6.751l-5.5789-5.5791
		c-1.5625-1.5625-4.0938-1.5625-5.6562,0s-1.5625,4.0938,0,5.6562l5.5784,5.5781l-5.7288,5.7285
		C51.6094,19.6973,51.6094,22.2285,53.1719,23.791z"/>
	<path fill="#314E55" d="M191.9414,62.1348l-5.7285-5.7285l5.5781-5.5781c1.5625-1.5625,1.5625-4.0938,0-5.6562
		s-4.0938-1.5625-5.6562,0l-5.5781,5.5781l-5.5781-5.5781c-1.5625-1.5625-4.0938-1.5625-5.6562,0s-1.5625,4.0938,0,5.6562
		l5.5781,5.5781l-5.7285,5.7285c-1.5625,1.5625-1.5625,4.0938,0,5.6562c0.7812,0.7812,1.8047,1.1719,2.8281,1.1719
		s2.0469-0.3906,2.8281-1.1719l5.7285-5.7285l5.7285,5.7285c0.7812,0.7812,1.8047,1.1719,2.8281,1.1719s2.0469-0.3906,2.8281-1.1719
		C193.5039,66.2285,193.5039,63.6973,191.9414,62.1348z"/>
	<path fill="#314E55" d="M6.8281,95.791l5.7285-5.7285l5.7285,5.7285c0.7812,0.7812,1.8047,1.1719,2.8281,1.1719
		s2.0469-0.3906,2.8281-1.1719c1.5625-1.5625,1.5625-4.0938,0-5.6562l-5.7285-5.7285l5.5781-5.5781
		c1.5625-1.5625,1.5625-4.0938,0-5.6562s-4.0938-1.5625-5.6562,0L12.5566,78.75l-5.5781-5.5781
		c-1.5625-1.5625-4.0938-1.5625-5.6562,0s-1.5625,4.0938,0,5.6562l5.5781,5.5781l-5.7285,5.7285
		c-1.5625,1.5625-1.5625,4.0938,0,5.6562C1.9531,96.5723,2.9766,96.9629,4,96.9629S6.0469,96.5723,6.8281,95.791z"/>
</g>
</svg>
