<?xml version="1.0" encoding="utf-8"?>
<!-- Generator: Adobe Illustrator 19.2.0, SVG Export Plug-In . SVG Version: 6.00 Build 0)  -->
<svg version="1.1" id="plane" xmlns="http://www.w3.org/2000/svg" xmlns:xlink="http://www.w3.org/1999/xlink" x="0px" y="0px"
	 viewBox="0 0 215.506 214.0484" enable-background="new 0 0 215.506 214.0484" xml:space="preserve">
<g>
	<path fill="#314E55" d="M162.3927,173.7007c0.7812,0.7812,1.8047,1.1719,2.8281,1.1719s2.0469-0.3906,2.8281-1.1719
		c1.5625-1.5625,1.5625-4.0938,0-5.6562l-5.6565-5.656l16.9709-16.969c0.75-0.75,1.1719-1.7656,1.1719-2.8281
		s-0.4219-2.0781-1.1719-2.8281l-39.4736-39.4744l35.7139-19.2288c1.1133-0.6016,1.877-1.6914,2.0605-2.9414
		c0.1836-1.2538-0.2344-2.5156-1.1289-3.4102l-12.4453-12.4453c-0.9961-0.9922-2.4336-1.3945-3.7988-1.0508l-47.582,11.8955
		l-3.1348-3.1348l71.7324-39.8545c1.0957-0.6094,1.8438-1.6992,2.0176-2.9414s-0.2441-2.4961-1.1328-3.3828l-22.627-22.625
		c-1.0156-1.0156-2.5-1.4023-3.8809-1.0312l-91.1006,24.843L49.2286,9.6265C38.3224-1.2758,20.5724-1.2641,9.6583,9.6539
		c-10.916,10.918-10.9277,28.668-0.0273,39.5703l15.3569,15.3567L0.1407,155.6812c-0.377,1.3828,0.0156,2.8633,1.0312,3.8789
		l22.6289,22.6289c0.7559,0.7539,1.7754,1.1719,2.8281,1.1719c0.1836,0,0.3691-0.0117,0.5547-0.0391
		c1.2422-0.1719,2.332-0.9219,2.9414-2.0195l39.8516-71.7334l3.1333,3.1333l-11.897,47.5845
		c-0.3398,1.3633,0.0586,2.8047,1.0527,3.7969l12.4453,12.4453c0.7559,0.7578,1.7754,1.1719,2.8281,1.1719
		c0.1934,0,0.3867-0.0156,0.5801-0.043c1.252-0.1836,2.3418-0.9492,2.9414-2.0625l19.2305-35.7122l39.4746,39.4739
		c0.7812,0.7812,1.8047,1.1719,2.8281,1.1719s2.0469-0.3906,2.8281-1.1719l11.314-11.3127L162.3927,173.7007z"/>
	<path fill="#E4AD40" d="M142.5938,170.8726L15.2872,43.5679C7.506,35.7867,7.5177,23.107,15.3145,15.3101
		c7.7969-7.793,20.4727-7.8125,28.2578-0.0273L87.1458,58.857l13.0222,13.0234c0.001,0.001,0.0022,0.0012,0.0022,0.0012l8.479,8.479
		c0.0012,0.0012,0.002,0.0029,0.0032,0.0042l9.0903,9.0895l53.1362,53.137l-14.1431,14.1411l-16.9702-16.9692
		c-1.5625-1.5625-4.0938-1.5625-5.6562,0s-1.5625,4.0938,0,5.6562l16.97,16.9688L142.5938,170.8726z"/>
	<path fill="#314E55" d="M20.9708,20.9664c-6.2363,6.2383-6.2363,16.3906,0,22.6289c0.7793,0.7812,1.8047,1.1719,2.8281,1.1719
		s2.0469-0.3906,2.8281-1.1719c1.5625-1.5625,1.5625-4.0938,0-5.6562c-3.1172-3.1211-3.1172-8.1953,0-11.3164
		c3.1211-3.1172,8.1973-3.1172,11.3145,0c1.5625,1.5625,4.0977,1.5625,5.6562,0c1.5625-1.5625,1.5625-4.0938,0-5.6562
		C37.3595,14.732,27.2091,14.732,20.9708,20.9664z"/>
	<polygon fill="#F28544" points="25.7071,172.7828 8.4708,155.5445 31.502,71.0992 64.0938,103.689 	"/>
	<polygon fill="#F28544" points="76.5665,167.0718 69.5235,160.0289 79.7071,119.3023 94.3849,133.9781 	"/>
	<polygon fill="#F28544" points="160.0352,69.5211 167.0763,76.564 133.9845,94.3804 122.5113,82.9105 119.3055,79.7044 	"/>
	<polygon fill="#F28544" points="71.0997,31.4976 155.5489,8.4664 172.7852,25.7007 103.6922,64.0909 78.4073,38.8057 	"/>
	<path fill="#314E55" d="M153.0489,183.2164c-1.5625-1.5625-4.0938-1.5625-5.6562,0s-1.5625,4.0938,0,5.6562l21.0684,21.0664
		c0.7812,0.7812,1.8047,1.1719,2.8281,1.1719s2.0469-0.3906,2.8281-1.1719c1.5625-1.5625,1.5625-4.0938,0-5.6562L153.0489,183.2164z
		"/>
	<path fill="#314E55" d="M214.3341,186.0484l-34.0586-34.0586c-1.5625-1.5625-4.0938-1.5625-5.6562,0s-1.5625,4.0938,0,5.6562
		l34.0586,34.0586c0.7812,0.7812,1.8047,1.1719,2.8281,1.1719s2.0469-0.3906,2.8281-1.1719
		C215.8966,190.1422,215.8966,187.6109,214.3341,186.0484z"/>
	<path fill="#314E55" d="M185.1622,185.1617c-1.5625-1.5625-4.0938-1.5625-5.6562,0s-1.5625,4.0938,0,5.6562l22.0586,22.0586
		c0.7812,0.7812,1.8047,1.1719,2.8281,1.1719s2.0469-0.3906,2.8281-1.1719c1.5625-1.5625,1.5625-4.0938,0-5.6562L185.1622,185.1617z
		"/>
</g>
</svg>
