<?xml version="1.0" encoding="utf-8"?>
<!-- Generator: Adobe Illustrator 19.2.0, SVG Export Plug-In . SVG Version: 6.00 Build 0)  -->
<svg version="1.1" id="runing" xmlns="http://www.w3.org/2000/svg" xmlns:xlink="http://www.w3.org/1999/xlink" x="0px" y="0px"
	 viewBox="0 0 231.8553 102.9295" enable-background="new 0 0 231.8553 102.9295" xml:space="preserve">
<g>
	<path fill="#314E55" d="M220.3871,54.0701l-6.4043-6.6523c-0.6816-0.7109-1.6035-1.1445-2.5859-1.2148
		c-0.4824-0.0352-48.5605-3.6758-77.3184-13.5664c-5.957-2.0469-11.3438-7.8437-17.0469-13.9785
		c-7.4922-8.0605-15.2383-16.3945-26.082-18.502c-5.3516-1.043-9.4902,3.3008-14.3008,8.3262
		c-4.877,5.0938-10.9473,11.4355-19.5977,14.1348c-18.8496,5.8828-47.9238-0.0371-48.2129-0.0977
		c-1.1406-0.2363-2.3047,0.0312-3.2246,0.7246s-1.4961,1.752-1.5801,2.9004L0.0101,81.4568c-0.0752,1.05,0.2712,2.085,0.9543,2.8821
		l1.8054,11.3718c0.3027,1.9023,1.918,3.3164,3.8438,3.3711l134.3721,3.5862c0.4478,0.1724,0.9202,0.2615,1.4795,0.2615
		c0.0566,0,0.1172,0,0.1758,0c37.7891-0.8906,60.7832-3.668,60.8652-3.6836c14.2148-1.2188,23.8613-6.7305,27.1602-15.5195
		C233.975,74.9216,230.3246,64.3865,220.3871,54.0701z"/>
	<path fill="#D8D8D8" d="M9.3451,86.0955c20.0774,1.2571,89.2754,5.3811,123.2256,4.7207c0.6584,1.0283,1.53,2.4788,2.2502,3.6816
		L10.1507,91.1716L9.3451,86.0955z"/>
	<path fill="#5ECB66" d="M223.1781,80.9138c-2.125,5.6562-9.543,9.4336-20.5,10.3789c-0.218,0.0271-21.5718,2.5972-56.9675,3.5522
		c-0.0974-0.0098-0.1792-0.0613-0.2786-0.064l-1.0906-0.0291c-0.7217-1.137-1.6819-2.7383-2.4075-3.9475
		c-3.92-6.5547-4.8047-8.0312-7.4102-8.0312c-0.0586,0-0.1191,0-0.1777,0c-33.7129,0.8594-107.9883-3.625-126.0645-4.7617
		l3.4082-46.8516c9.377,1.5176,31.4082,4.1895,47.7441-0.9062c10.6191-3.3145,17.7715-10.7852,22.9941-16.2383
		c2.1582-2.2539,5.752-6.0078,6.9531-6.0078c0.0156,0,0.0293,0,0.041,0c6.3684,1.2385,11.8838,5.8818,17.1021,11.1948
		L90.2894,32.9275c-1.6875,1.4258-1.8984,3.9492-0.4727,5.6367c0.791,0.9355,1.9199,1.418,3.0566,1.418
		c0.9121,0,1.8301-0.3105,2.5801-0.9453l16.5769-14.0144c1.4375,1.5439,2.8921,3.0798,4.376,4.5706
		c-0.0454,0.0352-0.1021,0.043-0.1462,0.0806L99.1039,44.1795c-1.6875,1.4258-1.8984,3.9492-0.4727,5.6367
		c0.791,0.9375,1.9199,1.418,3.0566,1.418c0.9121,0,1.8301-0.3086,2.5801-0.9453l17.1562-14.5059
		c0.3245-0.2742,0.5444-0.6157,0.7585-0.9575c2.8933,2.3064,5.9504,4.2271,9.2942,5.3774
		c27.1406,9.332,69.123,13.1484,77.7969,13.8555l5.3516,5.5586C222.1918,67.4763,225.3089,75.2381,223.1781,80.9138z"/>
	<path fill="#314E55" d="M78.3539,56.5037l-8.498,3.8086l-38.7832-16.75c-2.0332-0.877-4.3828,0.0586-5.2578,2.0859
		c-0.877,2.0273,0.0586,4.3828,2.0859,5.2578l40.4004,17.4493c0.5059,0.2187,1.0469,0.3281,1.5859,0.3281
		c0.5586,0,1.1172-0.1172,1.6367-0.3516l10.1035-4.5313c2.0156-0.9023,2.918-3.2695,2.0137-5.2852S80.3636,55.5935,78.3539,56.5037z
		"/>
</g>
</svg>
