<?xml version="1.0" encoding="utf-8"?>
<!-- Generator: Adobe Illustrator 19.2.0, SVG Export Plug-In . SVG Version: 6.00 Build 0)  -->
<svg version="1.1" id="castle" xmlns="http://www.w3.org/2000/svg" xmlns:xlink="http://www.w3.org/1999/xlink" x="0px" y="0px"
	 viewBox="0 0 224 196" enable-background="new 0 0 224 196" xml:space="preserve">
<g>
	<path fill="#314E55" d="M220,60h-36c-2.2109,0-4,1.7891-4,4v36h-8V88c0-2.2109-1.7891-4-4-4h-16c-2.2109,0-4,1.7891-4,4v12h-8V88
		c0-2.2109-1.7891-4-4-4h-4V44c0-2.2109-1.7891-4-4-4h-12v-8h28c2.2109,0,4-1.7891,4-4V12c0-2.2109-1.7891-4-4-4h-28V0h-8v12v16v12
		H96c-2.2109,0-4,1.7891-4,4v40h-4c-2.2109,0-4,1.7891-4,4v12h-8V88c0-2.2109-1.7891-4-4-4H56c-2.2109,0-4,1.7891-4,4v12h-8V64
		c0-2.2109-1.7891-4-4-4H4c-2.2109,0-4,1.7891-4,4v128c0,2.2109,1.7891,4,4,4h36h48h20h8h20h48h36c2.2109,0,4-1.7891,4-4V64
		C224,61.7891,222.2109,60,220,60z"/>
	<rect x="116" y="16" fill="#F28544" width="24" height="8"/>
	<path fill="#D8D8D8" d="M100,48h8h8h8v36h-4c-2.2109,0-4,1.7891-4,4v12h-8V88c0-2.2109-1.7891-4-4-4h-4V48z"/>
	<polygon fill="#D8D8D8" points="8,68 36,68 36,104 36,188 8,188 	"/>
	<path fill="#D8D8D8" d="M44,108h12c2.2109,0,4-1.7891,4-4V92h8v12c0,2.2109,1.7891,4,4,4h16c2.2109,0,4-1.7891,4-4V92h8v12
		c0,2.2109,1.7891,4,4,4h16c2.2109,0,4-1.7891,4-4V92h8v12c0,2.2109,1.7891,4,4,4h16c2.2109,0,4-1.7891,4-4V92h8v12
		c0,2.2109,1.7891,4,4,4h12v80h-40v-23.9805c0-14.0867-10.4551-25.7466-24-27.6997V136h-8v0.3198
		c-13.5449,1.9531-24,13.613-24,27.6997V188H44V108z"/>
	<path fill="#C59981" d="M92,188v-23.9805c0-9.668,6.8828-17.7546,16-19.6147V188H92z"/>
	<path fill="#C59981" d="M116,188v-43.5952c9.1172,1.8601,16,9.9468,16,19.6147V188H116z"/>
	<polygon fill="#D8D8D8" points="216,188 188,188 188,104 188,68 216,68 	"/>
	<path fill="#314E55" d="M72,120H56c-2.2109,0-4,1.7891-4,4v28c0,2.2109,1.7891,4,4,4h16c2.2109,0,4-1.7891,4-4v-28
		C76,121.7891,74.2109,120,72,120z"/>
	<rect x="60" y="128" fill="#DBCF56" width="8" height="20"/>
	<path fill="#314E55" d="M152,156h16c2.2109,0,4-1.7891,4-4v-28c0-2.2109-1.7891-4-4-4h-16c-2.2109,0-4,1.7891-4,4v28
		C148,154.2109,149.7891,156,152,156z"/>
	<rect x="156" y="128" fill="#DBCF56" width="8" height="20"/>
	<path fill="#314E55" d="M196,108h12c2.2109,0,4-1.7891,4-4V84c0-2.2109-1.7891-4-4-4h-12c-2.2109,0-4,1.7891-4,4v20
		C192,106.2109,193.7891,108,196,108z"/>
	<rect x="200" y="88" fill="#DBCF56" width="4" height="12"/>
	<path fill="#314E55" d="M28,80H16c-2.2109,0-4,1.7891-4,4v20c0,2.2109,1.7891,4,4,4h12c2.2109,0,4-1.7891,4-4V84
		C32,81.7891,30.2109,80,28,80z"/>
	<rect x="20" y="88" fill="#DBCF56" width="4" height="12"/>
	<path fill="#314E55" d="M196,144h12c2.2109,0,4-1.7891,4-4v-20c0-2.2109-1.7891-4-4-4h-12c-2.2109,0-4,1.7891-4,4v20
		C192,142.2109,193.7891,144,196,144z"/>
	<rect x="200" y="124" fill="#DBCF56" width="4" height="12"/>
	<path fill="#314E55" d="M28,116H16c-2.2109,0-4,1.7891-4,4v20c0,2.2109,1.7891,4,4,4h12c2.2109,0,4-1.7891,4-4v-20
		C32,117.7891,30.2109,116,28,116z"/>
	<rect x="20" y="124" fill="#DBCF56" width="4" height="12"/>
</g>
</svg>
