<?xml version="1.0" encoding="utf-8"?>
<!-- Generator: Adobe Illustrator 19.2.0, SVG Export Plug-In . SVG Version: 6.00 Build 0)  -->
<svg version="1.1" id="sleep" xmlns="http://www.w3.org/2000/svg" xmlns:xlink="http://www.w3.org/1999/xlink" x="0px" y="0px"
	 viewBox="0 0 192.1797 206.6426" enable-background="new 0 0 192.1797 206.6426" xml:space="preserve">
<g>
	<path fill="#314E55" d="M33.5324,32c0-2.209-1.7891-4-4-4H13.0637L32.4894,6.6953c1.0664-1.1719,1.3438-2.8613,0.7031-4.3105
		S31.1183,0,29.5324,0H4.0012c-2.2109,0-4,1.791-4,4s1.7891,4,4,4h16.4688L1.0441,29.3047
		c-1.0664,1.1719-1.3438,2.8613-0.7031,4.3105S2.4152,36,4.0012,36h25.5312C31.7433,36,33.5324,34.209,33.5324,32z"/>
	<path fill="#314E55" d="M48.0012,28h16.4688L45.0441,49.3047c-1.0664,1.1719-1.3438,2.8613-0.7031,4.3105S46.4152,56,48.0012,56
		h25.5312c2.2109,0,4-1.791,4-4s-1.7891-4-4-4H57.0637l19.4258-21.3047c1.0664-1.1719,1.3438-2.8613,0.7031-4.3105
		S75.1183,20,73.5324,20H48.0012c-2.2109,0-4,1.791-4,4S45.7902,28,48.0012,28z"/>
	<path fill="#314E55" d="M41.5207,88c0-2.209-1.7891-4-4-4h-7.6758l10.8008-13.502c0.9609-1.1992,1.1445-2.8457,0.4805-4.2305
		C40.4582,64.8809,39.0597,64,37.5207,64h-16c-2.2109,0-4,1.791-4,4s1.7891,4,4,4h7.6758L18.3957,85.502
		c-0.9609,1.1992-1.1445,2.8457-0.4805,4.2305C18.5832,91.1191,19.9816,92,21.5207,92h16C39.7316,92,41.5207,90.209,41.5207,88z"/>
	<path fill="#314E55" d="M155.3332,49.3633c-7.4844-5.2422-15.6758-9.2422-24.3438-11.8906
		c-1.6602-0.5078-3.4532,0.1094-4.4453,1.5312c-0.9922,1.4199-0.9609,3.3184,0.082,4.7012
		c20.5,27.2188,21.1328,64.2812,1.5703,92.2207c-19.5664,27.9414-54.6055,40.0234-87.1992,30.0645
		c-1.6562-0.5078-3.4531,0.1094-4.4453,1.5312c-0.9922,1.4199-0.9609,3.3184,0.082,4.7012
		c5.4492,7.2363,12.0117,13.5645,19.5039,18.8125c15.0625,10.5469,32.3477,15.6094,49.4766,15.6074
		c27.2812-0.002,54.1562-12.8496,70.957-36.8438C203.9191,130.7402,194.3918,76.7129,155.3332,49.3633z"/>
	<path fill="#81A4E3" d="M170.0168,165.209c-24.8203,35.4473-73.8516,44.084-109.2891,19.2734
		c-3.4688-2.4297-6.7148-5.1113-9.7188-8.0273c32.0977,4.9004,64.6367-8.6582,83.7422-35.9395
		c19.0977-27.2832,20.7266-62.457,5.1328-90.9844c3.7656,1.8262,7.3945,3.959,10.8633,6.3867
		C186.1926,80.7363,194.8371,129.7656,170.0168,165.209z"/>
</g>
</svg>
