<?xml version="1.0" encoding="utf-8"?>
<!-- Generator: Adobe Illustrator 19.2.0, SVG Export Plug-In . SVG Version: 6.00 Build 0)  -->
<svg version="1.1" id="toothbrush" xmlns="http://www.w3.org/2000/svg" xmlns:xlink="http://www.w3.org/1999/xlink" x="0px" y="0px"
	 viewBox="0 0 220 116.1018" enable-background="new 0 0 220 116.1018" xml:space="preserve">
<g>
	<path fill="#73C9C9" d="M124,92.1018v16h77.9902c5.5195,0,10.0098-4.4863,10.0098-10v-10h-88V92.1018z"/>
	<rect x="8" y="100.1018" fill="#73C9C9" width="108" height="8"/>
	<path fill="#F58CAC" d="M197.9707,16.1018h-57.3984c-7.6758,0-13.6426-2.0254-17.8301-4.1953l0.4453,9.9648
		c0.3516,7.8457,7.0215,14.2305,14.8691,14.2305H212v-5.9512C212,22.4045,205.707,16.1018,197.9707,16.1018z"/>
	<path fill="#314E55" d="M197.9707,8.1018h-57.3984c-12.543,0-19.0156-6.5742-19.2637-6.834
		c-1.1426-1.2207-2.9258-1.6035-4.4746-0.957c-1.543,0.6484-2.5195,2.1914-2.4453,3.8652l0.8066,18.0527
		c0.5391,12.0605,10.7949,21.873,22.8613,21.873H216c2.209,0,4-1.791,4-4v-9.9512C220,17.9924,210.1172,8.1018,197.9707,8.1018z
		 M212,36.1018h-73.9434c-7.8477,0-14.5176-6.3848-14.8691-14.2305l-0.4453-9.9648c4.1875,2.1699,10.1543,4.1953,17.8301,4.1953
		h57.3984c7.7363,0,14.0293,6.3027,14.0293,14.0488V36.1018z"/>
	<path fill="#314E55" d="M212,54.1018c0-2.209-1.791-4-4-4s-4,1.791-4,4v26h-12v-26c0-2.209-1.791-4-4-4s-4,1.791-4,4v26h-12v-26
		c0-2.209-1.791-4-4-4s-4,1.791-4,4v26h-12v-26c0-2.209-1.791-4-4-4s-4,1.791-4,4v26h-12v-26c0-2.209-1.791-4-4-4s-4,1.791-4,4v26
		h-8v12H0v24h116h8h77.9902c9.9297,0,18.0098-8.0742,18.0098-18v-18h-8V54.1018z M116,108.1018H8v-8h108V108.1018z M212,98.1018
		c0,5.5137-4.4902,10-10.0098,10H124v-16v-4h88V98.1018z"/>
</g>
</svg>
