<?xml version="1.0" encoding="utf-8"?>
<!-- Generator: Adobe Illustrator 19.2.0, SVG Export Plug-In . SVG Version: 6.00 Build 0)  -->
<svg version="1.1" id="babywalker" xmlns="http://www.w3.org/2000/svg" xmlns:xlink="http://www.w3.org/1999/xlink" x="0px" y="0px"
	 viewBox="0 0 200.2188 188" enable-background="new 0 0 200.2188 188" xml:space="preserve">
<g>
	<path fill="#314E55" d="M168.2188,156c-8.8242,0-16,7.1758-16,16s7.1758,16,16,16s16-7.1758,16-16S177.043,156,168.2188,156z"/>
	<path fill="#E4AD40" d="M168.2188,180c-4.4102,0-8-3.5898-8-8s3.5898-8,8-8s8,3.5898,8,8S172.6289,180,168.2188,180z"/>
	<path fill="#314E55" d="M80.2188,156c-8.8242,0-16,7.1758-16,16s7.1758,16,16,16s16-7.1758,16-16S89.043,156,80.2188,156z"/>
	<path fill="#E4AD40" d="M80.2188,180c-4.4102,0-8-3.5898-8-8s3.5898-8,8-8s8,3.5898,8,8S84.6289,180,80.2188,180z"/>
	<path fill="#314E55" d="M196.2188,84H55.7417L32.875,53.5039c-0.7539-1.0078-1.9414-1.6016-3.1992-1.6016H4c-2.2109,0-4,1.7891-4,4
		s1.7891,4,4,4h23.6758l20.6545,27.5442C48.303,87.6353,48.2188,87.8037,48.2188,88c0,41.9062,34.0938,76,76,76s76-34.0938,76-76
		C200.2188,85.7891,198.4297,84,196.2188,84z"/>
	<path fill="#D8D8D8" d="M124.2188,156c-36.1257,0-65.7573-28.3188-67.8745-63.9226c0.0483-0.0295,0.1008-0.0457,0.1482-0.0774
		h135.6091C190.0234,127.6406,160.3711,156,124.2188,156z"/>
	<path fill="#314E55" d="M94.4531,40.875c0.7188,1.3555,2.1055,2.1289,3.5391,2.1289c0.6289,0,1.2695-0.1484,1.8672-0.4648
		c1.9531-1.0312,2.6992-3.4531,1.6641-5.4062L89.707,14.793c-1.0352-1.9492-3.4492-2.7031-5.4062-1.6641
		c-1.9531,1.0312-2.6992,3.4531-1.6641,5.4062L94.4531,40.875z"/>
	<path fill="#314E55" d="M57.2031,60l25.7695,3.207c0.1641,0.0234,0.332,0.0312,0.496,0.0312c1.9883,0,3.7149-1.4805,3.9649-3.5078
		c0.2734-2.1914-1.2812-4.1875-3.4766-4.4609l-25.7695-3.207c-2.1523-0.3203-4.1914,1.2812-4.4609,3.4766
		C53.4531,57.7305,55.0078,59.7266,57.2031,60z"/>
	<path fill="#314E55" d="M81.5117,46.8789c0.7891,0.8555,1.8633,1.2891,2.9414,1.2891c0.9688,0,1.9414-0.3516,2.7109-1.0586
		c1.625-1.4961,1.7266-4.0273,0.2305-5.6523L76.9648,30.1289c-1.4961-1.6211-4.0234-1.7227-5.6523-0.2305
		c-1.625,1.4961-1.7266,4.0273-0.2305,5.6523L81.5117,46.8789z"/>
	<path fill="#314E55" d="M122.2422,79.5352c0.0957,0.0464,0.1995,0.03,0.2969,0.0684C123.0535,79.844,123.613,80,124.2188,80h72
		c2.2109,0,4-1.7891,4-4c0-29.8662-17.3601-55.689-42.4807-68.1052c-0.1663-0.115-0.2891-0.2725-0.4763-0.3635
		c-0.1938-0.0947-0.4006-0.0952-0.6006-0.156C146.8057,2.6963,135.8342,0,124.2188,0c-2.2109,0-4,1.7891-4,4v70.8679
		C119.7063,76.6963,120.4773,78.677,122.2422,79.5352z"/>
	<path fill="#D8D8D8" d="M192.1016,72H130.356l26.9314-55.3745C177.0056,27.6516,190.7139,48.1902,192.1016,72z"/>
	<path fill="#D8D8D8" d="M150.0667,13.1777l-21.8479,44.9221V8.1172C135.9229,8.5662,143.2559,10.3645,150.0667,13.1777z"/>
</g>
</svg>
