<?xml version="1.0" encoding="utf-8"?>
<!-- Generator: Adobe Illustrator 19.2.0, SVG Export Plug-In . SVG Version: 6.00 Build 0)  -->
<svg version="1.1" id="book" xmlns="http://www.w3.org/2000/svg" xmlns:xlink="http://www.w3.org/1999/xlink" x="0px" y="0px"
	 viewBox="0 0 224 164" enable-background="new 0 0 224 164" xml:space="preserve">
<g>
	<path fill="#D26CBA" d="M116,127.2461c9.2871-1.5664,29.9746-4.8125,42-4.8125s32.7129,3.2461,42,4.8125V12.9297
		C191.7324,11.5195,169.8926,8,158,8s-33.7324,3.5195-42,4.9297V127.2461z"/>
	<path fill="#EA86A5" d="M108,127.2461V12.9297C99.7324,11.5195,77.8926,8,66,8s-33.7324,3.5195-42,4.9297v114.3164
		c9.2871-1.5664,29.9746-4.8125,42-4.8125S98.7129,125.6797,108,127.2461z"/>
	<path fill="#314E55" d="M20.7148,135.9375c0.3027-0.0586,30.4902-5.5039,45.2852-5.5039s44.9824,5.4453,45.2852,5.5039
		C111.5234,135.9805,111.7617,136,112,136c0.1455,0,0.2815-0.0588,0.4253-0.0745c0.0977-0.01,0.1921,0.0293,0.2896,0.012
		c0.3027-0.0586,30.4902-5.5039,45.2852-5.5039s44.9824,5.4453,45.2852,5.5039C203.5234,135.9805,203.7617,136,204,136
		c0.9297,0,1.8379-0.3242,2.5645-0.9297C207.4746,134.3125,208,133.1875,208,132V9.5664c0-1.9336-1.3828-3.5898-3.2852-3.9375
		C203.4473,5.4023,173.5156,0,158,0c-14.4202,0-41.2603,4.6611-46,5.5017C107.2603,4.6611,80.4202,0,66,0
		C50.4844,0,20.5527,5.4023,19.2852,5.6289C17.3828,5.9766,16,7.6328,16,9.5664V132c0,1.1875,0.5254,2.3125,1.4355,3.0703
		C18.3496,135.8281,19.5449,136.1445,20.7148,135.9375z M200,12.9297v114.3164c-9.2871-1.5664-29.9746-4.8125-42-4.8125
		s-32.7129,3.2461-42,4.8125V12.9297C124.2676,11.5195,146.1074,8,158,8S191.7324,11.5195,200,12.9297z M24,12.9297
		C32.2676,11.5195,54.1074,8,66,8s33.7324,3.5195,42,4.9297v114.3164c-9.2871-1.5664-29.9746-4.8125-42-4.8125
		s-32.7129,3.2461-42,4.8125V12.9297z"/>
	<polygon fill="#314E55" points="216,96 216,144 140,144 132,144 132,152 132,156 92,156 92,152 92,144 84,144 8,144 8,96 0,96 
		0,144 0,152 8,152 84,152 84,156 84,164 92,164 132,164 140,164 140,156 140,152 216,152 224,152 224,144 224,96 	"/>
</g>
</svg>
