<?xml version="1.0" encoding="utf-8"?>
<!-- Generator: Adobe Illustrator 19.2.0, SVG Export Plug-In . SVG Version: 6.00 Build 0)  -->
<svg version="1.1" id="slicebread" xmlns="http://www.w3.org/2000/svg" xmlns:xlink="http://www.w3.org/1999/xlink" x="0px" y="0px"
	 viewBox="0 0 216 176" enable-background="new 0 0 216 176" xml:space="preserve">
<g>
	<path fill="#E9E7D1" d="M142,8c-35.572,0-60.5503,11.8013-65.1616,24.0674C116.9558,32.7764,148,48.2793,148,68
		c0,7.291-4.1387,14.168-12,19.9922V136h41.9629c10.3027,0,18.6855-8.3887,18.6855-18.6992V53.6484
		c0-1.3027,0.6348-2.5234,1.7012-3.2734C202.752,47.2832,208,42.2988,208,36.1113C208,22.5352,181.4805,8,142,8z M144,40h-8v-8h8V40
		z M144,28v-8h8v8H144z M160,44h-8v-8h8V44z M184,28h-8v-8h8V28z"/>
	<path fill="#E9E7D1" d="M140,68c0-13.5215-26.5195-28-66-28c-0.5564,0-1.0828,0.0317-1.634,0.0371
		c-0.1267,0.0127-0.2361,0.0742-0.366,0.0742c-0.1033,0-0.1899-0.0508-0.2913-0.0586C33.5159,40.6074,8,54.7456,8,68
		c0,6.3867,5.6074,11.4961,10.3125,14.6562c1.2051,0.8086,1.875,2.207,1.7559,3.6523C20.0234,86.8574,20,87.4102,20,87.9688v60.0625
		C20,159.043,28.9883,168,40.0352,168h67.9297C119.0117,168,128,159.043,128,148.0312V87.9688c0-0.5586-0.0234-1.1113-0.0684-1.6602
		c-0.1191-1.4453,0.5508-2.8438,1.7559-3.6523C134.3926,79.4961,140,74.3867,140,68z M64,56h8v8h-8V56z M52,64h-8v-8h8V64z M56,68h8
		v8h-8V68z M68,88h-8v-8h8V88z M80,80h-8v-8h8V80z M80,60h8v8h-8V60z M96,80h-8v-8h8V80z M104,64h-8v-8h8V64z"/>
	<path fill="#314E55" d="M142,0c-38.7334,0-69.6101,13.8232-73.5527,32.1323C29.6519,33.4766,0,48.7261,0,68
		c0,7.291,4.1387,14.168,12,19.9922v60.0391C12,163.4531,24.5762,176,40.0352,176h67.9297C123.4238,176,136,163.4531,136,148.0312
		V144h41.9629c14.7148,0,26.6855-11.9766,26.6855-26.6992V55.6699C212.0859,49.9336,216,43.2051,216,36.1113
		C216,15.8613,183.4961,0,142,0z M127.9316,86.3086C127.9766,86.8574,128,87.4102,128,87.9688v60.0625
		C128,159.043,119.0117,168,107.9648,168H40.0352C28.9883,168,20,159.043,20,148.0312V87.9688c0-0.5586,0.0234-1.1113,0.0684-1.6602
		c0.1191-1.4453-0.5508-2.8438-1.7559-3.6523C13.6074,79.4961,8,74.3867,8,68c0-13.2544,25.5159-27.3926,63.7087-27.9473
		c0.1013,0.0078,0.188,0.0586,0.2913,0.0586c0.1299,0,0.2393-0.0615,0.366-0.0742C72.9172,40.0317,73.4436,40,74,40
		c39.4805,0,66,14.4785,66,28c0,6.3867-5.6074,11.4961-10.3125,14.6562C128.4824,83.4648,127.8125,84.8633,127.9316,86.3086z
		 M198.3496,50.375c-1.0664,0.75-1.7012,1.9707-1.7012,3.2734v63.6523c0,10.3105-8.3828,18.6992-18.6855,18.6992H136V87.9922
		C143.8613,82.168,148,75.291,148,68c0-19.7207-31.0442-35.2236-71.1616-35.9326C81.4497,19.8013,106.428,8,142,8
		c39.4805,0,66,14.5352,66,28.1113C208,42.2988,202.752,47.2832,198.3496,50.375z"/>
	<rect x="44" y="56" fill="#314E55" width="8" height="8"/>
	<rect x="56" y="68" fill="#314E55" width="8" height="8"/>
	<rect x="136" y="32" fill="#314E55" width="8" height="8"/>
	<rect x="64" y="56" fill="#314E55" width="8" height="8"/>
	<rect x="144" y="20" fill="#314E55" width="8" height="8"/>
	<rect x="72" y="72" fill="#314E55" width="8" height="8"/>
	<rect x="152" y="36" fill="#314E55" width="8" height="8"/>
	<rect x="96" y="56" fill="#314E55" width="8" height="8"/>
	<rect x="176" y="20" fill="#314E55" width="8" height="8"/>
	<rect x="80" y="60" fill="#314E55" width="8" height="8"/>
	<rect x="88" y="72" fill="#314E55" width="8" height="8"/>
	<rect x="60" y="80" fill="#314E55" width="8" height="8"/>
</g>
</svg>
