<?xml version="1.0" encoding="utf-8"?>
<!-- Generator: Adobe Illustrator 19.2.0, SVG Export Plug-In . SVG Version: 6.00 Build 0)  -->
<svg version="1.1" id="autovehicle" xmlns="http://www.w3.org/2000/svg" xmlns:xlink="http://www.w3.org/1999/xlink" x="0px"
	 y="0px" viewBox="0 0 240 128" enable-background="new 0 0 240 128" xml:space="preserve">
<g>
	<polygon fill="#73C9C9" points="161.7891,44 145.4258,8 72,8 72,44 	"/>
	<rect x="40" y="8" fill="#73C9C9" width="24" height="36"/>
	<path fill="#D8D8D8" d="M52,88c-8.8242,0-16,7.1777-16,16s7.1758,16,16,16s16-7.1777,16-16S60.8242,88,52,88z M52,112
		c-4.4102,0-8-3.5879-8-8s3.5898-8,8-8s8,3.5879,8,8S56.4102,112,52,112z"/>
	<path fill="#D8D8D8" d="M188,88c-8.8242,0-16,7.1777-16,16s7.1758,16,16,16s16-7.1777,16-16S196.8242,88,188,88z M188,112
		c-4.4102,0-8-3.5879-8-8s3.5898-8,8-8s8,3.5879,8,8S192.4102,112,188,112z"/>
	<path fill="#EA86A5" d="M224.6914,82.6191c-0.7578-0.875-1.1016-2.0391-0.9375-3.1875C223.918,78.3008,224,77.1465,224,76
		c0-13.2344-10.7617-24-23.9922-24H168H72v0.1816h-8V52H36h-8v28c0,2.209-1.7891,4-4,4H8v16h20.332
		c0.0156-0.0923,0.0537-0.176,0.0703-0.2681c0.2197-1.2175,0.5332-2.3997,0.9299-3.5466c0.0728-0.2104,0.1499-0.416,0.2285-0.6238
		c0.4316-1.1436,0.9353-2.25,1.5293-3.3032c0.0854-0.1516,0.1812-0.2942,0.2698-0.4438c0.645-1.0881,1.353-2.135,2.1562-3.1042
		c0.022-0.0264,0.0469-0.0496,0.0688-0.0759c0.8064-0.9646,1.6975-1.8523,2.6433-2.6799c0.1064-0.093,0.2043-0.1929,0.3123-0.2839
		c0.9302-0.7859,1.929-1.4878,2.9719-2.127c0.1758-0.1077,0.3477-0.2168,0.5264-0.3201c1.0415-0.6021,2.1301-1.1248,3.2622-1.5671
		c0.1975-0.0771,0.3962-0.1465,0.5962-0.2185c1.1628-0.4192,2.3589-0.7629,3.5964-0.999c0.158-0.03,0.3188-0.0459,0.478-0.073
		C49.2844,80.1426,50.6245,80,52,80s2.7156,0.1426,4.0283,0.3657c0.1592,0.0271,0.3201,0.043,0.478,0.073
		c1.2373,0.2361,2.4331,0.5798,3.5957,0.9988c0.2004,0.0722,0.3999,0.1418,0.5979,0.2192c1.1318,0.4421,2.22,0.9648,3.2612,1.5667
		c0.1787,0.1033,0.3506,0.2124,0.5264,0.3201c1.043,0.6392,2.0417,1.3411,2.9719,2.127c0.1079,0.0911,0.2058,0.1909,0.3123,0.2839
		c0.9458,0.8276,1.8369,1.7153,2.6433,2.6799c0.022,0.0264,0.0469,0.0496,0.0688,0.0759c0.8025,0.9685,1.5098,2.0142,2.1545,3.1016
		c0.0894,0.1511,0.1863,0.2952,0.2725,0.4482c0.5933,1.0527,1.0967,2.1582,1.5281,3.3013c0.0786,0.208,0.156,0.4136,0.2288,0.624
		c0.3967,1.147,0.7102,2.3291,0.9299,3.5466c0.0166,0.092,0.0547,0.1758,0.0703,0.2681h88.6641
		c0.0156-0.0923,0.0537-0.176,0.0703-0.2681c0.2197-1.2175,0.5332-2.3997,0.9299-3.5466c0.0728-0.2104,0.1499-0.416,0.2285-0.6238
		c0.4316-1.1436,0.9353-2.25,1.5293-3.3032c0.0854-0.1516,0.1812-0.2942,0.2698-0.4438c0.645-1.0881,1.353-2.135,2.1562-3.1042
		c0.022-0.0264,0.0469-0.0496,0.0688-0.0759c0.8064-0.9646,1.6975-1.8523,2.6433-2.6799c0.1064-0.093,0.2043-0.1929,0.3123-0.2839
		c0.9302-0.7859,1.929-1.4878,2.9719-2.127c0.1758-0.1077,0.3477-0.2168,0.5264-0.3201c1.0415-0.6021,2.1301-1.1248,3.2622-1.5671
		c0.1975-0.0771,0.3962-0.1465,0.5962-0.2185c1.1628-0.4192,2.3589-0.7629,3.5964-0.999c0.158-0.03,0.3188-0.0459,0.478-0.073
		C185.2844,80.1426,186.6245,80,188,80s2.7156,0.1426,4.0283,0.3657c0.1592,0.0271,0.3201,0.043,0.478,0.073
		c1.2373,0.2361,2.4331,0.5798,3.5957,0.9988c0.2004,0.0722,0.3999,0.1418,0.5979,0.2192c1.1318,0.4421,2.22,0.9648,3.2612,1.5667
		c0.1787,0.1033,0.3506,0.2124,0.5264,0.3201c1.043,0.6392,2.0417,1.3411,2.9719,2.127c0.1079,0.0911,0.2058,0.1909,0.3123,0.2839
		c0.9458,0.8276,1.8369,1.7153,2.6433,2.6799c0.022,0.0264,0.0469,0.0496,0.0688,0.0759c0.8025,0.9685,1.5098,2.0142,2.1545,3.1016
		c0.0894,0.1511,0.1863,0.2952,0.2725,0.4482c0.5933,1.0527,1.0967,2.1582,1.5281,3.3013c0.0786,0.208,0.156,0.4136,0.2288,0.624
		c0.3967,1.147,0.7102,2.3291,0.9299,3.5466c0.0166,0.092,0.0547,0.1758,0.0703,0.2681H232V84h-4.2852
		C226.5547,84,225.4531,83.4961,224.6914,82.6191z"/>
	<path fill="#314E55" d="M236,76h-4c0-17.6445-14.3516-32-31.9922-32h-29.4333L151.6406,2.3457C150.9922,0.916,149.5703,0,148,0H72
		h-8H36c-2.2109,0-4,1.791-4,4v40h-8c-2.2109,0-4,1.791-4,4v28H4c-2.2109,0-4,1.791-4,4v24c0,2.209,1.7891,4,4,4h24.3613
		C30.2747,119.3325,40.1311,128,52,128s21.7253-8.6675,23.6387-20h88.7227c1.9133,11.3325,11.7698,20,23.6387,20
		s21.7253-8.6675,23.6387-20H236c2.2109,0,4-1.791,4-4V80C240,77.791,238.2109,76,236,76z M145.4258,8l16.3633,36H72V8H145.4258z
		 M40,8h24v36H40V8z M52,120c-8.8242,0-16-7.1777-16-16s7.1758-16,16-16s16,7.1777,16,16S60.8242,120,52,120z M188,120
		c-8.8242,0-16-7.1777-16-16s7.1758-16,16-16s16,7.1777,16,16S196.8242,120,188,120z M232,100h-20.332
		c-0.0156-0.0923-0.0537-0.176-0.0703-0.2681c-0.2197-1.2175-0.5332-2.3997-0.9299-3.5466c-0.0728-0.2104-0.1501-0.416-0.2288-0.624
		c-0.4314-1.1431-0.9348-2.2485-1.5281-3.3013c-0.0862-0.1531-0.1831-0.2971-0.2725-0.4482
		c-0.6448-1.0874-1.3521-2.1331-2.1545-3.1016c-0.022-0.0264-0.0469-0.0496-0.0688-0.0759
		c-0.8064-0.9646-1.6975-1.8523-2.6433-2.6799c-0.1064-0.093-0.2043-0.1929-0.3123-0.2839c-0.9302-0.7859-1.929-1.4878-2.9719-2.127
		c-0.1758-0.1077-0.3477-0.2168-0.5264-0.3201c-1.0413-0.6018-2.1294-1.1245-3.2612-1.5667
		c-0.198-0.0774-0.3975-0.147-0.5979-0.2192c-1.1626-0.419-2.3584-0.7627-3.5957-0.9988c-0.158-0.03-0.3189-0.0459-0.478-0.073
		C190.7156,80.1426,189.3755,80,188,80s-2.7156,0.1426-4.0283,0.3657c-0.1592,0.0271-0.3201,0.043-0.478,0.073
		c-1.2375,0.2361-2.4336,0.5798-3.5964,0.999c-0.2,0.072-0.3987,0.1414-0.5962,0.2185c-1.1321,0.4424-2.2207,0.9651-3.2622,1.5671
		c-0.1787,0.1033-0.3506,0.2124-0.5264,0.3201c-1.043,0.6392-2.0417,1.3411-2.9719,2.127
		c-0.1079,0.0911-0.2058,0.1909-0.3123,0.2839c-0.9458,0.8276-1.8369,1.7153-2.6433,2.6799
		c-0.022,0.0264-0.0469,0.0496-0.0688,0.0759c-0.8032,0.9692-1.5112,2.0161-2.1562,3.1042
		c-0.0886,0.1497-0.1843,0.2922-0.2698,0.4438c-0.594,1.0532-1.0977,2.1597-1.5293,3.3032
		c-0.0786,0.2078-0.1558,0.4133-0.2285,0.6238c-0.3967,1.147-0.7102,2.3291-0.9299,3.5466
		c-0.0166,0.092-0.0547,0.1758-0.0703,0.2681H75.668c-0.0156-0.0923-0.0537-0.176-0.0703-0.2681
		c-0.2197-1.2175-0.5332-2.3997-0.9299-3.5466c-0.0728-0.2104-0.1501-0.416-0.2288-0.624
		c-0.4314-1.1431-0.9348-2.2485-1.5281-3.3013c-0.0862-0.1531-0.1831-0.2971-0.2725-0.4482
		c-0.6448-1.0874-1.3521-2.1331-2.1545-3.1016c-0.022-0.0264-0.0469-0.0496-0.0688-0.0759
		c-0.8064-0.9646-1.6975-1.8523-2.6433-2.6799c-0.1064-0.093-0.2043-0.1929-0.3123-0.2839c-0.9302-0.7859-1.929-1.4878-2.9719-2.127
		c-0.1758-0.1077-0.3477-0.2168-0.5264-0.3201c-1.0413-0.6018-2.1294-1.1245-3.2612-1.5667
		c-0.198-0.0774-0.3975-0.147-0.5979-0.2192c-1.1626-0.419-2.3584-0.7627-3.5957-0.9988c-0.158-0.03-0.3189-0.0459-0.478-0.073
		C54.7156,80.1426,53.3755,80,52,80s-2.7156,0.1426-4.0283,0.3657c-0.1592,0.0271-0.3201,0.043-0.478,0.073
		c-1.2375,0.2361-2.4336,0.5798-3.5964,0.999c-0.2,0.072-0.3987,0.1414-0.5962,0.2185c-1.1321,0.4424-2.2207,0.9651-3.2622,1.5671
		c-0.1787,0.1033-0.3506,0.2124-0.5264,0.3201c-1.043,0.6392-2.0417,1.3411-2.9719,2.127
		c-0.1079,0.0911-0.2058,0.1909-0.3123,0.2839c-0.9458,0.8276-1.8369,1.7153-2.6433,2.6799
		c-0.022,0.0264-0.0469,0.0496-0.0688,0.0759c-0.8032,0.9692-1.5112,2.0161-2.1562,3.1042
		c-0.0886,0.1497-0.1843,0.2922-0.2698,0.4438c-0.594,1.0532-1.0977,2.1597-1.5293,3.3032
		c-0.0786,0.2078-0.1558,0.4133-0.2285,0.6238c-0.3967,1.147-0.7102,2.3291-0.9299,3.5466
		c-0.0166,0.092-0.0547,0.1758-0.0703,0.2681H8V84h16c2.2109,0,4-1.791,4-4V52h8h28v0.1816h8V52h96h32.0078
		C213.2383,52,224,62.7656,224,76c0,1.1465-0.082,2.3008-0.2461,3.4316c-0.1641,1.1484,0.1797,2.3125,0.9375,3.1875
		c0.7617,0.877,1.8633,1.3809,3.0234,1.3809H232V100z"/>
	<path fill="#314E55" d="M188,96c-4.4102,0-8,3.5879-8,8s3.5898,8,8,8s8-3.5879,8-8S192.4102,96,188,96z"/>
	<path fill="#314E55" d="M52,96c-4.4102,0-8,3.5879-8,8s3.5898,8,8,8s8-3.5879,8-8S56.4102,96,52,96z"/>
</g>
</svg>
