<?xml version="1.0" encoding="utf-8"?>
<!-- Generator: Adobe Illustrator 19.2.0, SVG Export Plug-In . SVG Version: 6.00 Build 0)  -->
<svg version="1.1" id="dollarcoin" xmlns="http://www.w3.org/2000/svg" xmlns:xlink="http://www.w3.org/1999/xlink" x="0px" y="0px"
	 viewBox="0 0 224 224" enable-background="new 0 0 224 224" xml:space="preserve">
<g>
	<path fill="#E4AD40" d="M200,112c0-48.5234-39.4766-88-88-88s-88,39.4766-88,88s39.4766,88,88,88S200,160.5234,200,112z
		 M79.9062,140.0938c0-2.209,1.791-4,4-4s4,1.791,4,4c0,13.2852,10.8086,24.0938,24.0938,24.0938s24.0938-10.8086,24.0938-24.0938
		S125.2852,116,112,116c-17.6973,0-32.0938-14.3965-32.0938-32.0938c0-16.3398,12.2815-29.8384,28.0938-31.8174V40h8v12.0889
		c15.8123,1.979,28.0938,15.4775,28.0938,31.8174c0,2.209-1.791,4-4,4s-4-1.791-4-4c0-13.2852-10.8086-24.0938-24.0938-24.0938
		S87.9062,70.6211,87.9062,83.9062S98.7148,108,112,108c17.6973,0,32.0938,14.3965,32.0938,32.0938
		c0,16.3398-12.2815,29.8384-28.0938,31.8174V184h-8v-12.0889C92.1877,169.9321,79.9062,156.4336,79.9062,140.0938z"/>
	<path fill="#DBCF56" d="M184.3406,37.3857l-5.5757,5.7295C196.7744,60.5757,208,84.9951,208,112c0,52.9336-43.0664,96-96,96
		c-16.6697,0-32.3564-4.2778-46.032-11.7832l-5.7549,5.9141C75.4746,210.9346,93.1516,216,112,216c57.3457,0,104-46.6543,104-104
		C216,82.75,203.844,56.2998,184.3406,37.3857z"/>
	<path fill="#DBCF56" d="M58.9497,191.958C33.0854,174.7407,16,145.3325,16,112c0-52.9336,43.0664-96,96-96
		c23.0552,0,44.2344,8.1748,60.8027,21.7715l5.5942-5.749C160.3711,17.0312,137.2224,8,112,8C54.6543,8,8,54.6543,8,112
		c0,35.5732,17.9624,67.0205,45.2839,85.7808L58.9497,191.958z"/>
	<path fill="#314E55" d="M112,0C50.2422,0,0,50.2422,0,112s50.2422,112,112,112s112-50.2422,112-112S173.7578,0,112,0z M8,112
		C8,54.6543,54.6543,8,112,8c25.2224,0,48.3711,9.0312,66.397,24.0225l-5.5942,5.749C156.2344,24.1748,135.0552,16,112,16
		c-52.9336,0-96,43.0664-96,96c0,33.3325,17.0854,62.7407,42.9497,79.958l-5.6658,5.8228C25.9624,179.0205,8,147.5732,8,112z
		 M24,112c0-48.5234,39.4766-88,88-88s88,39.4766,88,88s-39.4766,88-88,88S24,160.5234,24,112z M112,216
		c-18.8484,0-36.5254-5.0654-51.7869-13.8691l5.7549-5.9141C79.6436,203.7222,95.3303,208,112,208c52.9336,0,96-43.0664,96-96
		c0-27.0049-11.2256-51.4243-29.2351-68.8848l5.5757-5.7295C203.844,56.2998,216,82.75,216,112C216,169.3457,169.3457,216,112,216z"
		/>
	<path fill="#314E55" d="M116,184v-12.0889c15.8123-1.979,28.0938-15.4775,28.0938-31.8174C144.0938,122.3965,129.6973,108,112,108
		c-13.2852,0-24.0938-10.8086-24.0938-24.0938S98.7148,59.8125,112,59.8125s24.0938,10.8086,24.0938,24.0938c0,2.209,1.791,4,4,4
		s4-1.791,4-4c0-16.3398-12.2815-29.8384-28.0938-31.8174V40h-8v12.0889c-15.8123,1.979-28.0938,15.4775-28.0938,31.8174
		C79.9062,101.6035,94.3027,116,112,116c13.2852,0,24.0938,10.8086,24.0938,24.0938S125.2852,164.1875,112,164.1875
		s-24.0938-10.8086-24.0938-24.0938c0-2.209-1.791-4-4-4s-4,1.791-4,4c0,16.3398,12.2815,29.8384,28.0938,31.8174V184H116z"/>
</g>
</svg>
