<?xml version="1.0" encoding="utf-8"?>
<!-- Generator: Adobe Illustrator 19.2.0, SVG Export Plug-In . SVG Version: 6.00 Build 0)  -->
<svg version="1.1" id="frontviewship" xmlns="http://www.w3.org/2000/svg" xmlns:xlink="http://www.w3.org/1999/xlink" x="0px"
	 y="0px" viewBox="0 0 200 216" enable-background="new 0 0 200 216" xml:space="preserve">
<g>
	<path fill="#E4AD40" d="M77.6113,68.3379L114,84.344V48H38v36.344l36.3887-16.0061C75.416,67.8887,76.584,67.8887,77.6113,68.3379z
		"/>
	<path fill="#D8D8D8" d="M38,130.1348V172h76v-41.8652c0-0.3691,0.0508-0.7363,0.1523-1.0918l9.0488-31.9102L76,76.3691
		L28.7988,97.1328l9.0488,31.9102C37.9492,129.3984,38,129.7656,38,130.1348z"/>
	<polygon fill="#73C9C9" points="98,20 64,20 56,20 54,20 54,40 98,40 	"/>
	<path fill="#314E55" d="M196,184c-2.209,0-4,1.791-4,4c0,11.0273-8.9727,20-20,20s-20-8.9727-20-20c0-2.209-1.791-4-4-4
		s-4,1.791-4,4c0,11.0273-8.9727,20-20,20s-20-8.9727-20-20c0-2.209-1.791-4-4-4s-4,1.791-4,4c0,11.0273-8.9727,20-20,20
		s-20-8.9727-20-20c0-2.209-1.791-4-4-4s-4,1.791-4,4c0,11.0273-8.9727,20-20,20s-20-8.9727-20-20c0-2.209-1.791-4-4-4s-4,1.791-4,4
		c0,15.4395,12.5605,28,28,28c10.1914,0,19.1018-5.4907,24-13.6519C56.8982,210.5093,65.8086,216,76,216s19.1018-5.4907,24-13.6519
		C104.8982,210.5093,113.8086,216,124,216s19.1018-5.4907,24-13.6519C152.8982,210.5093,161.8086,216,172,216
		c15.4395,0,28-12.5605,28-28C200,185.791,198.209,184,196,184z"/>
	<path fill="#314E55" d="M30,130.6914V176c0,2.209,1.791,4,4,4h84c2.209,0,4-1.791,4-4v-45.3086l9.8477-34.7266
		c0.5449-1.9219-0.4102-3.9492-2.2363-4.7539L122,87.863V44c0-2.209-1.791-4-4-4h-12V16c0-2.209-1.791-4-4-4H64V0h-8v12h-6
		c-2.209,0-4,1.791-4,4v24H34c-2.209,0-4,1.791-4,4v43.863l-7.6113,3.3479c-1.8262,0.8047-2.7812,2.832-2.2363,4.7539L30,130.6914z
		 M54,20h2h8h34v20H54V20z M38,48h76v36.344L77.6113,68.3379c-1.0273-0.4492-2.1953-0.4492-3.2227,0L38,84.344V48z M76,76.3691
		l47.2012,20.7637l-9.0488,31.9102c-0.1016,0.3555-0.1523,0.7227-0.1523,1.0918V172H38v-41.8652
		c0-0.3691-0.0508-0.7363-0.1523-1.0918l-9.0488-31.9102L76,76.3691z"/>
</g>
</svg>
