<?xml version="1.0" encoding="utf-8"?>
<!-- Generator: Adobe Illustrator 19.2.0, SVG Export Plug-In . SVG Version: 6.00 Build 0)  -->
<svg version="1.1" id="arrowthroughheart" xmlns="http://www.w3.org/2000/svg" xmlns:xlink="http://www.w3.org/1999/xlink" x="0px"
	 y="0px" viewBox="0 0 194.5225 194.5254" enable-background="new 0 0 194.5225 194.5254" xml:space="preserve">
<g>
	<path fill="#E65F58" d="M110.625,104.9707l34.2761,34.2764c16.6406-17.5005,31.927-37.4502,31.927-49.8623
		c0-20.4863-12.7266-41.1582-41.1562-41.1582c-10.5742,0-20.6211,4.002-28.2969,11.2695c-1.539,1.4609-3.9609,1.4609-5.5,0
		c-7.6757-7.2676-17.7226-11.2695-28.2968-11.2695c-28.4297,0-41.1562,20.6719-41.1562,41.1582
		c0,10.6992,12.0547,29.3867,33.0703,51.2715c17.5391,18.2617,34.8281,31.916,39.1133,33.8496
		c4.5586-2.0107,19.5566-14.3188,34.7126-29.5293l-34.3494-34.3496L110.625,104.9707z"/>
	<polygon fill="#D8D8D8" points="168.2305,178.8789 184.1992,184.2012 178.8749,168.2324 	"/>
	<path fill="#314E55" d="M194.3164,189.2598l-9.8984-29.6973c-0.4375-1.3145-1.5234-2.3086-2.875-2.627
		c-1.3477-0.3145-2.7656,0.084-3.7461,1.0645l-7.0715,7.0713l-20.1394-20.1396c15.7292-16.4805,34.2422-39.3213,34.2422-55.5469
		c0-29.4023-19.7539-49.1582-49.1562-49.1582c-11.4023,0-22.293,3.8965-31.0469,11.041
		c-8.7539-7.1445-19.6445-11.041-31.0469-11.041c-8.5408,0-16.2341,1.7119-22.8989,4.7983L36.7659,31.1113l5.656-5.6562
		c1.5625-1.5625,1.5625-4.0938,0-5.6562L22.625,0l-5.6562,5.6562L33.9375,22.627L22.625,33.9414L5.6562,16.9707L0,22.627
		l19.7969,19.7988c0.75,0.75,1.7656,1.1719,2.8281,1.1719s2.0781-0.4219,2.8281-1.1719l5.657-5.6572l12.4067,12.4062
		c-11.9819,8.5195-19.095,22.6152-19.095,40.21c0,23.7539,39.4336,61.5879,51.5234,72.6172
		c10.0625,9.1855,22.8945,19.9648,28.2891,20.5879v0.0137c0.0938,0.0098,0.1953,0.0137,0.2969,0.0137
		c0.0586-0.002,0.1172,0.0039,0.1719,0.002c0.0977,0,0.1953-0.0039,0.2852-0.0137v-0.0156
		c4.1406-0.4824,13.3555-7.1797,27.4258-19.9395c2.9231-2.6504,7.4263-6.8428,12.5808-11.9971l20.0737,20.0732l-7.0725,7.0723
		c-0.9805,0.9805-1.3828,2.3984-1.0664,3.748c0.3203,1.3477,1.3164,2.4355,2.6289,2.875l29.6992,9.8984
		c0.4141,0.1387,0.8438,0.2051,1.2656,0.2051c1.043,0,2.0664-0.4102,2.8281-1.1719
		C194.4219,192.2832,194.7969,190.6973,194.3164,189.2598z M104.6055,174.5059c-4.2852-1.9336-21.5742-15.5879-39.1133-33.8496
		c-21.0156-21.8848-33.0703-40.5723-33.0703-51.2715c0-20.4863,12.7266-41.1582,41.1562-41.1582
		c10.5742,0,20.6211,4.002,28.2968,11.2695c1.5391,1.4609,3.961,1.4609,5.5,0c7.6758-7.2676,17.7227-11.2695,28.2969-11.2695
		c28.4297,0,41.1562,20.6719,41.1562,41.1582c0,12.4121-15.2864,32.3618-31.927,49.8623l-34.2761-34.2764l-5.6562,5.6562
		l34.3494,34.3496C124.1621,160.187,109.1641,172.4951,104.6055,174.5059z M168.2305,178.8789l10.6445-10.6465l5.3243,15.9688
		L168.2305,178.8789z"/>
</g>
</svg>
