<?xml version="1.0" encoding="utf-8"?>
<!-- Generator: Adobe Illustrator 19.2.0, SVG Export Plug-In . SVG Version: 6.00 Build 0)  -->
<svg version="1.1" id="dishdome" xmlns="http://www.w3.org/2000/svg" xmlns:xlink="http://www.w3.org/1999/xlink" x="0px" y="0px"
	 viewBox="0 0 232 223.9961" enable-background="new 0 0 232 223.9961" xml:space="preserve">
<g>
	<path fill="#DBCF56" d="M116,99.9961c-47.1836,0-85.8086,37.3281-87.9102,84h175.8203
		C201.8086,137.3242,163.1836,99.9961,116,99.9961z M91.1133,120.4101c-17.1523,6.3164-31.1484,18.8008-39.4141,35.1543
		c-0.7031,1.3926-2.1133,2.1953-3.5742,2.1953c-0.6055,0-1.2227-0.1387-1.8008-0.4297c-1.9727-0.998-2.7617-3.4023-1.7656-5.375
		c9.1836-18.1641,24.7344-32.0332,43.7891-39.0527c2.0703-0.7598,4.3711,0.2949,5.1367,2.3711
		C94.2461,117.3476,93.1875,119.6465,91.1133,120.4101z"/>
	<path fill="#E4AD40" d="M118,91.9961c5.5156,0,10-4.4863,10-10s-4.4844-10-10-10s-10,4.4863-10,10S112.4844,91.9961,118,91.9961z"
		/>
	<path fill="#314E55" d="M24,191.9961h184c2.2109,0,4-1.791,4-4c0-47.5273-34.7263-87.0772-80.1328-94.665
		C134.4099,90.2265,136,86.3135,136,81.9961c0-9.9258-8.0742-18-18-18s-18,8.0742-18,18c0,4.0747,1.4124,7.7944,3.7034,10.8145
		C56.5596,98.8701,20,139.2309,20,187.9961C20,190.2051,21.7891,191.9961,24,191.9961z M118,71.9961c5.5156,0,10,4.4863,10,10
		s-4.4844,10-10,10s-10-4.4863-10-10S112.4844,71.9961,118,71.9961z M116,99.9961c47.1836,0,85.8086,37.3281,87.9102,84H28.0898
		C30.1914,137.3242,68.8164,99.9961,116,99.9961z"/>
	<path fill="#314E55" d="M88.3477,112.9023c-19.0547,7.0195-34.6055,20.8887-43.7891,39.0527
		c-0.9961,1.9727-0.207,4.377,1.7656,5.375c0.5781,0.291,1.1953,0.4297,1.8008,0.4297c1.4609,0,2.8711-0.8027,3.5742-2.1953
		c8.2656-16.3535,22.2617-28.8379,39.4141-35.1543c2.0742-0.7637,3.1328-3.0625,2.3711-5.1367
		C92.7188,113.1972,90.418,112.1426,88.3477,112.9023z"/>
	<polygon fill="#314E55" points="232,199.9961 220,199.9961 212,199.9961 20,199.9961 12,199.9961 0,199.9961 0,207.9961 
		12,207.9961 12,223.9961 20,223.9961 20,207.9961 212,207.9961 212,223.9961 220,223.9961 220,207.9961 232,207.9961 	"/>
	<path fill="#314E55" d="M105.3281,43.7285c-0.8984,3.4434-3.9883,4.9473-4.0782,4.9902c-2.0156,0.9004-2.9257,3.2637-2.0234,5.2812
		c0.6602,1.4902,2.125,2.375,3.6562,2.375c0.543,0,1.0938-0.1133,1.625-0.3477c0.668-0.2988,6.6016-3.1191,8.5156-10.0996
		c1.6133-5.8926-0.2266-12.623-5.4688-20.0059c-3.1016-4.3691-4.1797-8.1094-3.2031-11.1133
		c1.5391-4.7578,7.7969-6.959,7.9648-7.0176c2.0898-0.6934,3.2266-2.9492,2.5391-5.043c-0.6914-2.0957-2.9492-3.2285-5.0469-2.5527
		c-0.418,0.1367-10.1992,3.4375-13.0469,12.0801c-1.832,5.5566-0.3945,11.7051,4.2695,18.2754
		C104.7305,35.7636,106.2188,40.3203,105.3281,43.7285z"/>
	<path fill="#314E55" d="M130.793,38.1094c-0.5039,1.9863-2.3203,2.8965-2.3398,2.9062c-2.0156,0.8984-2.9258,3.2637-2.0234,5.2812
		c0.6602,1.4902,2.125,2.375,3.6562,2.375c0.543-0.002,1.0938-0.1133,1.625-0.3477c0.5312-0.2383,5.2617-2.4844,6.7773-8.0273
		c1.2616-4.5996-0.125-9.7852-4.1211-15.4102c-1.3945-1.9648-2.9023-4.7852-2.1719-7.0566
		c0.7852-2.4316,3.9219-3.9844,5.0703-4.3809c2.0898-0.6953,3.2227-2.9473,2.5352-5.041c-0.6914-2.0957-2.9492-3.2285-5.0469-2.5527
		c-0.8086,0.2656-7.9531,2.7812-10.1484,9.4453c-1.4414,4.375-0.3516,9.1562,3.2383,14.2168
		C130.3164,33,131.3359,35.9726,130.793,38.1094z"/>
</g>
</svg>
