<?xml version="1.0" encoding="utf-8"?>
<!-- Generator: Adobe Illustrator 19.2.0, SVG Export Plug-In . SVG Version: 6.00 Build 0)  -->
<svg version="1.1" id="hotcoffe" xmlns="http://www.w3.org/2000/svg" xmlns:xlink="http://www.w3.org/1999/xlink" x="0px" y="0px"
	 viewBox="0 0 159.5824 219.999" enable-background="new 0 0 159.5824 219.999" xml:space="preserve">
<g>
	<path fill="#73C9C9" d="M12,178.5497c0,11.8262,9.625,21.4492,21.457,21.4492H90.543c11.832,0,21.457-9.623,21.457-21.4492V87.999
		H12V178.5497z M24,99.999h8v64.1426h-8V99.999z"/>
	<rect x="24" y="211.999" fill="#314E55" width="76" height="8"/>
	<path fill="#314E55" d="M159.5312,107.6669c-0.1719-2.0723-1.9023-3.668-3.9844-3.668H120v-16h4v-8h-8H8H0v8h4v90.5508
		c0,16.2383,13.2148,29.4492,29.457,29.4492H90.543c16.2422,0,29.457-13.2109,29.457-29.4492v-20.2461
		c0.1663-0.0459,0.3362-0.0332,0.5-0.1016C161.8047,140.8408,159.6445,109.0126,159.5312,107.6669z M112,178.5497
		c0,11.8262-9.625,21.4492-21.457,21.4492H33.457c-11.832,0-21.457-9.623-21.457-21.4492V87.999h100V178.5497z M120,149.6337
		V111.999h31.4141C150.5789,119.6972,145.7366,137.7783,120,149.6337z"/>
	<rect x="24" y="99.999" fill="#314E55" width="8" height="64.1426"/>
	<path fill="#314E55" d="M44.7461,68.9912c-1.8672,1.1777-2.4297,3.6465-1.25,5.5156c0.7578,1.209,2.0586,1.8691,3.3867,1.8691
		c0.7266,0,1.4648-0.1992,2.1289-0.6152c0.6992-0.4414,17-11.1309,2.8555-39.2949c-3.8164-7.6035-4.8164-14.209-2.9688-19.6328
		c2.1641-6.3613,7.7109-9.1426,7.8633-9.2168c1.9882-0.9375,2.8477-3.3047,1.9219-5.3008c-0.9258-2-3.2969-2.8711-5.3125-1.9453
		c-0.3516,0.1641-8.6367,4.0996-11.9883,13.7168c-2.6406,7.5684-1.5156,16.3047,3.3359,25.9688
		C55.4492,61.4208,45.1406,68.7255,44.7461,68.9912z"/>
	<path fill="#314E55" d="M73.4805,59.5458c-1.8711,1.1758-2.4336,3.6465-1.2578,5.5156c0.7617,1.207,2.0625,1.8691,3.3906,1.8691
		c0.7266,0,1.4648-0.1992,2.125-0.6152c0.543-0.3398,13.1523-8.5996,2.4688-29.8711c-2.6172-5.2129-3.3242-9.6953-2.1016-13.3242
		c1.4023-4.1641,4.9297-5.9609,5.1367-6.0645c1.9805-0.9395,2.8398-3.3027,1.9141-5.2969c-0.9258-2.002-3.293-2.8711-5.3125-1.9453
		c-0.6797,0.3164-6.7227,3.2949-9.2578,10.5684c-2.0117,5.7695-1.1797,12.3809,2.4727,19.6523
		C80.3359,54.5244,73.6914,59.3935,73.4805,59.5458z"/>
</g>
</svg>
